<?xml version="1.0" encoding="UTF-8"?>
<svg id="Layer_2" data-name="Layer 2" xmlns="http://www.w3.org/2000/svg" viewBox="0 0 216.29 66.73">
  <defs>
    <style>
      .cls-1 {
        stroke: #e783b5;
      }

      .cls-1, .cls-2 {
        fill: none;
        stroke-miterlimit: 10;
      }

      .cls-2 {
        stroke: #fff;
      }

      .cls-3 {
        fill: #fff;
        stroke-width: 0px;
      }
    </style>
  </defs>
  <g id="Layer_1-2" data-name="Layer 1">
    <g>
      <path class="cls-3" d="m41.06,66.11c-3.27.55-7.47.87-11.14-.79-2.4-1.07-4.4-2.85-4.47-6.1-.13-8.51,13.34-16.04,20.87-17.5,3.73-.71,6.73-.75,9,.24,1.87.79,2.93,1.78,3.47,2.81.6,1.11.47,2.18-.47,3.44-.8,1.07-1.87,2.65-2.6,3.8-.2.32-.67.59-1.4.2-1.53-.63-2.6-1.78-1.73-3.76.87-1.98,3.33-4.2,1.87-5.07-2.13-1.31-13,2.1-19.34,7.84-6.2,5.62-6,11.64-3.33,13.11,3.67,2.02,11.47-.95,15.54-5.74-2.13.24-4.27.48-5.87.55-3.33.2-5.4-.63-6.4-1.9-.33-.4-.13-.63.67-.63,5.2-.04,10.27-1.03,14.34-1.07,3.33-.04,5.2.83,6.07,2.02.33.44.2.71-.67.63-1.27-.08-2.93-.04-4.67.08,1.73,3.72-6.4,7.29-9.74,7.84Z"/>
      <path class="cls-3" d="m60.14,66.39c-4.73-.2-4.87-3.13-3.4-5.74,1.47-2.61,4.87-6.49,9.2-10.1.53-.44,1.2-.4,1.73-.04,1.47,1.31,1.13,3.09-1.27,5.35-2.47,2.34-3.8,3.92-5.2,5.82-1.4,1.94-1.2,3.37.33,3.45,2.6.12,6.27-2.65,9.87-6.1,4.2-4.04,6.13-6.77,8.27-8.47.67-.55,1.13-.63,1.67-.24,1,.71,1.53,2.46-.07,4.43-1.47,1.78-4.8,4.75-6.33,6.77-1.73,2.26-1.47,3.92.93,3.84,2.8-.08,6.2-2.69,8.8-5.46.33-.36.93-.4,1.2-.04.27.32.33,1.39-.6,2.49-1.93,2.22-6.07,4.24-10,4.24-4.33,0-6.07-1.62-5.54-3.92-2.33,1.86-5.87,3.88-9.6,3.72Z"/>
      <path class="cls-3" d="m93.61,52.57c.33-1.54,1-2.3,2.4-3.05,1.47-.79,3-.95,3.6-.59.67.4.33.83-.53,1.74-.27.24-.47.48-.73.75-.47,3.64.8,6.73.6,9.46-.13,1.54-.6,3.21-3,4.16,4.47-.99,7.27-3.37,8.94-5.5.33-.44,1-.32,1.27,0,.27.36.2,1.39-.93,2.61-2.53,2.73-7.07,4.24-11.8,4.36-3.87.08-7.6-.51-9.87-2.97-1.6-1.78-1.4-4.4.87-5.5.8-.4,1.33-.24,1.4.4.07.32.07.63.13.95,2.73-2.22,5.73-4.79,7.67-6.81Zm-7.07,8.95c1,2.3,2.93,3.92,5.13,3.52,3.07-.55,2.07-6.77,1.8-9.94-1.93,2.1-4.4,4.28-6.93,6.42Z"/>
      <path class="cls-3" d="m107.48,49.44c-.67-.55-.27-.83.73-.79,1.87.04,3.73-.04,5.54-.16,2.07-2.18,3.93-4.04,5.07-4.91.6-.51,1.27-.47,1.6,0,.73,1.11.73,2.42-.87,4.47,2.6-.04,3.6.67,4.13,1.19.47.48.2.75-.8.75-1.47-.12-3.53,0-5.2.16-2.6,2.65-6.4,6.49-8.94,9.82-2.2,2.89-1.47,5.34,1.33,5.42,3,.08,6.8-2.73,9.27-5.7.4-.48,1.13-.55,1.4,0,.33.63,0,1.35-.67,2.26-.87,1.15-5.27,4.63-10.6,4.51-4.4-.08-7.94-3.01-4.73-7.56,1.4-1.98,4.2-5.31,7.07-8.43-2.27,0-3.8-.59-4.33-1.03Z"/>
      <path class="cls-3" d="m141.75,50.59c.6-.51,1.13-.59,1.6-.24,1,.71,1.53,2.42-.07,4.39-1.47,1.78-4.8,4.75-6.4,6.85-1.67,2.22-1.73,3.92.53,3.84,2.73-.08,6.4-2.77,8.74-5.5.33-.36.8-.4,1.07-.04.27.36.27,1.35-.6,2.46-1.73,2.18-5.93,4.36-9.6,4.24-3.6-.12-5.47-1.39-5.47-3.25-2.13,1.62-5.13,3.09-8.33,3.09-6.2,0-7.47-5.03-1.93-9.82,5.4-4.67,10.67-6.45,14-6.45,2.87,0,4.2,1.31,4.07,2.85.87-.95,1.67-1.78,2.4-2.42Zm-5.33,1.62c-2.13-.12-7,2.46-10.67,5.98-3.53,3.41-4.4,6.89-1.8,6.93,2.73.04,6.2-2.5,9.6-5.98,4.2-4.36,4.8-6.81,2.87-6.93Z"/>
      <path class="cls-3" d="m167.56,50.35c.73-.44,1.13-.36,1.27.16.2.83-.6,1.86-2.73,3.44-3.33,2.5-9.4,6.3-15.8,12.31-.33.32-.67.59-1.33.4-2.6-.75-3.53-1.54-3.33-3.64.27-2.77,2.07-8.43,4.33-12.55.27-.44.8-.59,1.33-.32,2.2,1.11,2.53,2.57,1.6,4.99-1.2,3.05-2.53,5.27-3.47,9.58,4.73-4.63,13.6-11.6,18.14-14.37Z"/>
      <path class="cls-3" d="m176.5,46.55c-2.4.67-5.93,1.82-7.67,2.14-1.47.28-2.73.24-3.47.04-.53-.16-.6-.36.07-.63,1.8-.75,4.67-1.86,6.33-2.3,1.8-.48,3.73-.24,4.73.12.53.2.67.44,0,.63Z"/>
      <path class="cls-3" d="m187.23,52.57c.33-1.54,1-2.3,2.4-3.05,1.47-.79,3-.95,3.6-.59.67.4.33.83-.53,1.74-.27.24-.47.48-.73.75-.47,3.64.8,6.73.6,9.46-.13,1.54-.6,3.21-3,4.16,4.47-.99,7.27-3.37,8.94-5.5.33-.44,1-.32,1.27,0,.27.36.2,1.39-.93,2.61-2.53,2.73-7.07,4.24-11.8,4.36-3.87.08-7.6-.51-9.87-2.97-1.6-1.78-1.4-4.4.87-5.5.8-.4,1.33-.24,1.4.4.07.32.07.63.13.95,2.73-2.22,5.73-4.79,7.67-6.81Zm-7.07,8.95c1,2.3,2.93,3.92,5.13,3.52,3.07-.55,2.07-6.77,1.8-9.94-1.93,2.1-4.4,4.28-6.93,6.42Z"/>
    </g>
    <g>
      <path class="cls-3" d="m17.06,30.95h-.91l-5.19-19.24h.64l4.98,18.7h.06l5.04-18.7h.64l-5.28,19.24Z"/>
      <path class="cls-3" d="m25.29,30.95V11.7h.64v19.24h-.64Z"/>
      <path class="cls-3" d="m40.59,30.95l-8.73-18.54h-.06v18.54h-.64V11.7h1.05l8.7,18.51h.06V11.7h.65v19.24h-1.03Z"/>
      <path class="cls-3" d="m56.21,25.81c0,1.03-.16,1.88-.47,2.54s-.71,1.18-1.18,1.56c-.48.38-1,.65-1.56.8-.57.15-1.1.23-1.61.23h-4.56V11.7h4.02c.55,0,1.1.08,1.66.23.56.15,1.06.41,1.51.76.45.35.82.82,1.11,1.4.29.58.44,1.3.44,2.17,0,.69-.09,1.29-.28,1.79-.19.51-.43.94-.72,1.3-.29.36-.63.65-1,.87s-.75.38-1.12.49v.05c.37.05.77.19,1.21.39.44.21.85.51,1.23.91.38.4.7.91.95,1.52.25.62.38,1.35.38,2.2Zm-1.29-9.49c0-.78-.12-1.43-.35-1.96s-.54-.94-.92-1.25-.82-.53-1.32-.67-1.02-.2-1.57-.2h-3.28v8.29h3.37c.49,0,.98-.08,1.46-.24s.93-.41,1.32-.75c.39-.33.7-.77.94-1.3.23-.53.35-1.17.35-1.92Zm.67,9.57c0-.87-.13-1.61-.4-2.23-.26-.62-.6-1.11-1.01-1.5-.41-.38-.86-.66-1.35-.83-.49-.17-.97-.26-1.44-.26h-3.93v9.32h3.72c.64,0,1.24-.09,1.77-.26.54-.17,1-.44,1.39-.8s.69-.83.91-1.4.32-1.25.32-2.05Z"/>
      <path class="cls-3" d="m67.41,25.46h-7.3l-1.58,5.49h-.65l5.36-19.24h1.11l5.19,19.24h-.65l-1.49-5.49Zm-7.15-.54h7l-3.4-12.8h-.12l-3.49,12.8Z"/>
      <path class="cls-3" d="m80.8,30.95l-4.37-9.7h-3.28v9.7h-.64V11.7h4.06c.51,0,1.04.07,1.61.2.56.14,1.08.38,1.55.73.47.35.86.83,1.17,1.44.31.61.47,1.38.47,2.32,0,.89-.13,1.64-.4,2.24-.26.61-.6,1.1-1.01,1.48-.41.38-.87.66-1.38.83-.51.17-1.01.26-1.5.26l4.43,9.73h-.7Zm-.03-14.54c0-.8-.12-1.46-.37-2-.25-.53-.57-.96-.97-1.28s-.86-.54-1.39-.68-1.07-.2-1.61-.2h-3.28v8.45h3.49c1.35,0,2.37-.39,3.08-1.17.7-.78,1.06-1.82,1.06-3.13Z"/>
      <path class="cls-3" d="m150.14,12.25v18.7h-.65V12.25h-4.1v-.54h8.85v.54h-4.1Z"/>
      <path class="cls-3" d="m163.59,25.46h-7.3l-1.58,5.49h-.64l5.36-19.24h1.11l5.19,19.24h-.64l-1.5-5.49Zm-7.15-.54h7l-3.4-12.8h-.12l-3.49,12.8Z"/>
      <path class="cls-3" d="m177.42,16.49c0,.8-.12,1.51-.35,2.13-.23.62-.55,1.15-.95,1.58-.4.43-.88.75-1.42.98-.55.23-1.13.34-1.76.34h-3.61v9.43h-.64V11.7h4.07c.53,0,1.06.08,1.61.23.55.15,1.04.41,1.5.77.45.36.82.85,1.11,1.47.29.62.44,1.39.44,2.31Zm-.64.01c0-.78-.11-1.44-.34-1.98s-.52-.97-.89-1.31c-.37-.34-.78-.58-1.23-.74-.45-.15-.9-.23-1.35-.23h-3.63v8.73h3.72c.45,0,.9-.09,1.35-.26.45-.17.85-.44,1.2-.8.35-.36.63-.83.85-1.39.21-.56.32-1.24.32-2.02Z"/>
      <path class="cls-3" d="m187.18,25.46h-7.3l-1.58,5.49h-.65l5.36-19.24h1.11l5.19,19.24h-.65l-1.49-5.49Zm-7.15-.54h7l-3.4-12.8h-.12l-3.49,12.8Z"/>
      <path class="cls-3" d="m200.4,26.44c0,.8-.12,1.5-.37,2.12-.25.62-.58,1.13-1.01,1.55-.43.42-.92.73-1.48.95-.56.22-1.14.33-1.74.33-1,0-1.88-.2-2.65-.61-.77-.41-1.4-.99-1.89-1.75l.53-.35c.47.73,1.06,1.27,1.79,1.63.72.36,1.46.54,2.2.54.53,0,1.03-.1,1.51-.3.48-.2.9-.48,1.26-.86.36-.37.65-.83.88-1.39.22-.55.34-1.18.34-1.89,0-.65-.12-1.23-.35-1.74s-.54-.96-.92-1.35c-.38-.39-.81-.73-1.27-1.02-.47-.29-.94-.54-1.41-.76-.55-.25-1.08-.54-1.6-.86-.52-.32-.97-.69-1.36-1.11-.39-.43-.71-.92-.95-1.48-.25-.56-.37-1.21-.37-1.96,0-.8.13-1.5.38-2.11.25-.61.6-1.11,1.03-1.52s.93-.72,1.5-.92c.57-.21,1.16-.31,1.79-.31.8,0,1.54.15,2.21.45s1.23.8,1.66,1.51l-.47.35c-.43-.67-.93-1.13-1.51-1.39-.58-.25-1.22-.38-1.92-.38-.49,0-.97.09-1.45.26-.48.17-.91.43-1.29.79s-.69.81-.92,1.36c-.23.55-.35,1.21-.35,1.97,0,.67.11,1.26.32,1.75.21.5.5.93.85,1.29.35.36.75.68,1.19.95.44.27.87.51,1.3.71.61.29,1.18.6,1.73.94.55.34,1.03.72,1.45,1.16.42.44.76.93,1.01,1.5.25.56.38,1.21.38,1.96Z"/>
    </g>
    <polyline class="cls-1" points="92.84 30.95 93.27 18.53 92.41 18.53 92.41 17.88 97.83 16.41 101.77 15.34 104.22 12.49 114.28 .77 126.53 15.44 131.18 17.48 131.18 18.13 130.48 18.13 130.74 30.95"/>
    <path class="cls-2" d="m216.29,36.64H0"/>
  </g>
</svg>